<svg width="128" height="128" viewBox="0 0 34 34" fill="none" xmlns="http://www.w3.org/2000/svg">
<path d="M17.34 8.6806C17.5782 8.69626 17.8164 8.65087 18.0322 8.54873C18.2479 8.44659 18.434 8.29107 18.5728 8.0969C18.7117 7.90274 18.7987 7.67635 18.8256 7.43917C18.8525 7.20199 18.8184 6.96187 18.7266 6.74154C18.2909 5.85435 16.5006 5.75873 16.0703 6.86373C15.9835 7.0677 15.95 7.29039 15.973 7.51087C15.996 7.73135 16.0746 7.94236 16.2016 8.12406C16.3286 8.30576 16.4997 8.45217 16.6988 8.54953C16.898 8.64689 17.1186 8.692 17.34 8.6806ZM16.5219 7.0231C16.7981 6.27404 18.0147 6.33779 18.3122 6.94342C18.3739 7.0927 18.3965 7.25523 18.378 7.4157C18.3595 7.57616 18.3004 7.72926 18.2063 7.86056C18.1122 7.99186 17.9862 8.09702 17.8403 8.16614C17.6943 8.23526 17.5331 8.26605 17.3719 8.2556C17.2227 8.26116 17.0745 8.22899 16.9411 8.16206C16.8076 8.09513 16.6932 7.99561 16.6085 7.87272C16.5237 7.74982 16.4714 7.60753 16.4562 7.45902C16.4411 7.3105 16.4637 7.16057 16.5219 7.0231ZM17.3612 5.42935C17.5573 5.44434 17.7539 5.40823 17.9318 5.32455C18.1097 5.24086 18.2629 5.11246 18.3764 4.95189C18.4898 4.79132 18.5597 4.60406 18.5792 4.40841C18.5987 4.21276 18.5671 4.0154 18.4875 3.8356C18.1369 3.11842 16.6812 3.03873 16.3625 3.93123C16.2862 4.0958 16.2533 4.27716 16.267 4.45804C16.2806 4.63891 16.3404 4.81328 16.4405 4.96453C16.5406 5.11579 16.6778 5.23889 16.839 5.32211C17.0002 5.40534 17.18 5.44591 17.3612 5.43998L17.3612 5.42935ZM16.7716 4.11717C16.8339 4.00176 16.9251 3.90447 17.0363 3.83477C17.1474 3.76508 17.2747 3.72535 17.4058 3.71947C17.5369 3.71359 17.6672 3.74174 17.7841 3.80119C17.9011 3.86065 18.0006 3.94937 18.0731 4.05873C18.1188 4.1675 18.1358 4.28615 18.1226 4.40337C18.1094 4.52059 18.0664 4.63248 17.9977 4.72836C17.929 4.82424 17.8368 4.90093 17.7301 4.9511C17.6233 5.00127 17.5055 5.02327 17.3878 5.01498C17.2804 5.01863 17.1738 4.99531 17.0778 4.94714C16.9817 4.89897 16.8993 4.8275 16.838 4.73925C16.7767 4.65101 16.7385 4.5488 16.7269 4.44199C16.7153 4.33517 16.7306 4.22715 16.7716 4.12779L16.7716 4.11717ZM12.5216 7.77217C12.4532 7.9359 12.4269 8.11415 12.4451 8.29066C12.4633 8.46716 12.5254 8.63629 12.6258 8.78262C12.7262 8.92895 12.8616 9.0478 13.0197 9.12835C13.1778 9.20889 13.3536 9.24856 13.5309 9.24373C13.727 9.25872 13.9236 9.22261 14.1015 9.13892C14.2794 9.05524 14.4326 8.92684 14.5461 8.76626C14.6595 8.60569 14.7294 8.41844 14.7489 8.22278C14.7684 8.02713 14.7368 7.82977 14.6572 7.64998C14.3119 6.96467 12.8562 6.90623 12.5269 7.78279L12.5216 7.77217ZM14.2428 7.8731C14.2885 7.98187 14.3055 8.10052 14.2923 8.21775C14.2791 8.33497 14.2361 8.44685 14.1674 8.54274C14.0987 8.63862 14.0065 8.7153 13.8998 8.76548C13.793 8.81565 13.6752 8.83764 13.5575 8.82935C13.4488 8.83383 13.3407 8.81062 13.2434 8.76191C13.146 8.7132 13.0627 8.64058 13.0011 8.55086C12.9395 8.46114 12.9017 8.35724 12.8912 8.24892C12.8808 8.1406 12.898 8.0314 12.9412 7.93154C13.0042 7.81555 13.0964 7.71797 13.2086 7.64843C13.3208 7.57888 13.4491 7.53977 13.581 7.53494C13.713 7.53012 13.8438 7.55974 13.9608 7.6209C14.0778 7.68207 14.1768 7.77265 14.2481 7.88373L14.2428 7.8731ZM20.5753 9.16404C20.7714 9.17903 20.9679 9.14292 21.1459 9.05923C21.3238 8.97555 21.477 8.84715 21.5904 8.68658C21.7039 8.52601 21.7738 8.33875 21.7933 8.1431C21.8127 7.94744 21.7811 7.75008 21.7016 7.57029C21.3509 6.8531 19.8953 6.77342 19.5766 7.66592C19.5027 7.83003 19.4717 8.01022 19.4866 8.18958C19.5014 8.36894 19.5616 8.54158 19.6614 8.69133C19.7612 8.84107 19.8975 8.96301 20.0573 9.04569C20.2172 9.12837 20.3954 9.1691 20.5753 9.16404ZM19.9856 7.85185C20.048 7.73644 20.1392 7.63915 20.2504 7.56946C20.3615 7.49977 20.4888 7.46004 20.6199 7.45416C20.7509 7.44827 20.8813 7.47643 20.9982 7.53588C21.1152 7.59534 21.2147 7.68406 21.2872 7.79341C21.3328 7.90218 21.3499 8.02083 21.3367 8.13806C21.3235 8.25528 21.2805 8.36717 21.2117 8.46305C21.143 8.55893 21.0509 8.63561 20.9441 8.68579C20.8374 8.73596 20.7195 8.75795 20.6019 8.74967C20.4925 8.75457 20.3836 8.73144 20.2856 8.68246C20.1877 8.63348 20.1038 8.56028 20.0421 8.46981C19.9804 8.37934 19.9428 8.2746 19.9329 8.16551C19.923 8.05644 19.9412 7.94664 19.9856 7.84654L19.9856 7.85185ZM21.6697 6.53435C21.8657 6.54934 22.0623 6.51323 22.2402 6.42955C22.4182 6.34586 22.5713 6.21746 22.6848 6.05689C22.7983 5.89632 22.8682 5.70906 22.8876 5.51341C22.9071 5.31776 22.8755 5.12039 22.7959 4.9406C22.4453 4.22342 20.9897 4.14373 20.6709 5.03623C20.5971 5.20034 20.5661 5.38053 20.581 5.55989C20.5958 5.73925 20.656 5.9119 20.7558 6.06164C20.8556 6.21139 20.9918 6.33332 21.1517 6.416C21.3115 6.49868 21.4898 6.53941 21.6697 6.53435ZM21.08 5.22217C21.1424 5.10675 21.2336 5.00947 21.3447 4.93977C21.4559 4.87008 21.5832 4.83035 21.7142 4.82447C21.8453 4.81858 21.9756 4.84674 22.0926 4.90619C22.2095 4.96565 22.3091 5.05437 22.3816 5.16373C22.4272 5.2725 22.4443 5.39115 22.4311 5.50837C22.4179 5.62559 22.3748 5.73748 22.3061 5.83336C22.2374 5.92925 22.1453 6.00593 22.0385 6.0561C21.9318 6.10628 21.8139 6.12827 21.6962 6.11998C21.5875 6.12445 21.4794 6.10124 21.3821 6.05253C21.2848 6.00382 21.2014 5.9312 21.1399 5.84148C21.0783 5.75176 21.0405 5.64787 21.03 5.53955C21.0195 5.43123 21.0367 5.32202 21.08 5.22217ZM12.58 6.66717C12.776 6.68216 12.9726 6.64604 13.1505 6.56236C13.3285 6.47868 13.4816 6.35027 13.5951 6.1897C13.7086 6.02913 13.7785 5.84187 13.798 5.64622C13.8174 5.45057 13.7858 5.25321 13.7062 5.07342C13.3556 4.35623 11.9 4.27654 11.5812 5.16904C11.5084 5.33109 11.4774 5.50882 11.4909 5.68596C11.5045 5.86311 11.5623 6.03402 11.6591 6.18305C11.7558 6.33209 11.8883 6.4545 12.0446 6.53907C12.2008 6.62364 12.3758 6.66768 12.5534 6.66717L12.58 6.66717ZM11.9903 5.35498C12.0548 5.24283 12.1468 5.14899 12.2577 5.08237C12.3686 5.01575 12.4947 4.97855 12.6239 4.97429C12.7532 4.97003 12.8815 4.99886 12.9965 5.05805C13.1115 5.11723 13.2095 5.20481 13.2812 5.31248C13.3269 5.42125 13.3439 5.5399 13.3307 5.65712C13.3175 5.77434 13.2745 5.88623 13.2058 5.98211C13.1371 6.07799 13.045 6.15468 12.9382 6.20485C12.8314 6.25503 12.7136 6.27702 12.5959 6.26873C12.4838 6.27751 12.3714 6.25672 12.2698 6.20844C12.1682 6.16017 12.0811 6.08609 12.0171 5.99361C11.9531 5.90113 11.9145 5.79349 11.9052 5.68142C11.8958 5.56936 11.916 5.4568 11.9637 5.35498L11.9903 5.35498ZM3.6125 21.6112C3.71874 22.0097 5.05218 25.4362 5.15312 25.6009C5.25406 25.7656 6.87969 25.6647 7.21437 25.6009C7.54906 25.5372 8.0325 24.9209 8.0325 24.9209C8.0325 24.9209 11.2678 32.0131 11.5387 32.2097C11.8097 32.4062 15.8897 32.3212 16.0862 32.2097C16.2828 32.0981 16.1872 27.3594 16.1872 27.3594C16.8068 27.4667 17.4391 27.4792 18.0625 27.3965C18.0625 27.3965 18.2537 31.944 18.3228 32.1087C18.3919 32.2734 21.6484 32.2734 22.0734 32.1087C22.4984 31.944 25.2609 27.694 27.1787 23.3378C28.3462 20.667 29.2001 17.8699 29.7234 15.0025C29.8881 14.9015 30.3503 14.9228 30.4512 14.7528C30.4274 13.3789 30.2492 12.0121 29.92 10.6781C29.8666 10.496 29.7515 10.3381 29.5945 10.2315C29.4375 10.1249 29.2483 10.0762 29.0594 10.0937L28.3687 8.74435C27.9537 7.93458 27.3726 7.22138 26.6634 6.65123C26.8416 6.30291 26.9686 5.93076 27.0406 5.54623C27.0406 5.14779 23.3219 1.63623 17.1966 1.69467C11.0712 1.7531 7.28343 5.67904 7.18781 5.98185C7.13026 6.41142 7.11603 6.84569 7.14531 7.2781C7.14531 7.2781 6.16249 8.02717 5.05218 10.4072C4.38783 11.9483 4.2135 13.6564 4.55281 15.3C4.55281 15.3 3.79843 15.6612 3.71875 15.9375C3.63906 16.2137 3.47968 21.2128 3.58593 21.6112L3.6125 21.6112ZM14.9706 31.0781C14.7634 31.2959 12.3834 31.2959 12.1497 31.0781C11.9159 30.8603 8.43093 23.4175 8.3725 23.2847C8.36754 23.0286 8.38532 22.7726 8.42562 22.5197C9.36782 23.8039 10.6974 24.7518 12.2187 25.2237C14.5562 25.84 15.0875 25.755 15.0875 25.8294C15.0875 25.9037 15.0344 31.009 14.9706 31.0781ZM14.9706 25.0006C13.6137 24.7592 12.2975 24.3282 11.0606 23.7203C9.97991 23.113 9.11476 22.1848 8.585 21.064C8.585 21.064 8.88781 19.6297 8.95156 19.5287C8.95156 19.5287 9.06312 19.4278 9.2225 19.3003C9.19747 19.6968 9.29383 20.0915 9.49875 20.4319C9.7957 20.8518 10.2286 21.1563 10.7243 21.2938C11.22 21.4313 11.7479 21.3933 12.2187 21.1862C12.6695 20.982 13.031 20.6214 13.2361 20.171C13.4412 19.7207 13.4761 19.2113 13.3344 18.7372C13.2176 18.3484 12.9706 18.0116 12.635 17.7834C12.2993 17.5551 11.8954 17.4492 11.4909 17.4834L13.5416 15.8897C13.7199 16.3899 14.0003 16.8476 14.365 17.2337C14.6163 17.3925 14.8856 17.5209 15.1672 17.6162C15.1672 17.6162 15.045 24.8678 14.9812 25.0006L14.9706 25.0006ZM9.80156 18.8222L10.8641 17.9881C11.7991 17.7225 12.75 18.1103 12.9147 18.8912C13.0287 19.2635 13.0025 19.6647 12.841 20.019C12.6795 20.3733 12.3939 20.6562 12.0381 20.8144C11.6632 20.975 11.2441 21.0003 10.8525 20.886C10.461 20.7716 10.1214 20.5247 9.89187 20.1875C9.76779 19.984 9.6952 19.7532 9.68039 19.5153C9.66558 19.2774 9.70899 19.0395 9.80687 18.8222L9.80156 18.8222ZM13.8444 13.5681C13.7487 11.3103 15.3531 10.0672 17.3241 9.97685C18.1333 9.96773 18.9158 10.2668 19.5126 10.8133C20.1095 11.3599 20.4761 12.113 20.5381 12.92C20.6284 14.2109 20.4903 17.239 17.2391 17.2869C15.4062 17.3081 13.9453 15.8206 13.8497 13.5628L13.8444 13.5681ZM18.5619 26.4881C18.0979 26.6651 17.6021 26.7429 17.1062 26.7165C16.6769 26.7515 16.2471 26.6552 15.8737 26.4403C15.8047 26.3075 15.8366 18.02 16.0012 17.9881C16.1659 17.9562 18.1262 17.7809 18.1953 17.9881C18.2644 18.1953 18.6894 26.3181 18.5619 26.4881ZM23.3431 28.7831C22.4772 30.1962 21.8981 31.1684 21.6644 31.2056C21.4306 31.2428 19.1409 31.2056 19.1037 31.0569C19.0666 30.9081 19.1037 27.1734 19.1037 27.1734C19.1037 27.1734 19.7572 26.6953 19.7519 26.3659L19.7519 26.0312C21.9178 25.3518 24.012 24.4621 26.0047 23.375C26.0047 23.375 24.1931 27.37 23.3219 28.7831L23.3431 28.7831ZM27.2266 20.3787C26.2066 21.8981 24.0391 23.2528 22.78 23.8584C21.7431 24.3483 20.666 24.7482 19.5606 25.0537C19.4809 25.0537 19.1197 18.6787 19.1197 18.6787L19.7784 19.5978C19.7784 19.5978 20.0175 19.4172 19.9962 19.3269C19.975 19.2365 19.0559 17.7969 19.0559 17.7331C19.0559 17.6694 19.2631 17.5419 19.38 17.4409C19.4309 17.3935 19.486 17.3508 19.5447 17.3134C19.878 17.8192 20.2473 18.3003 20.6497 18.7531C20.7506 18.7531 20.8994 18.5937 20.8781 18.5619C20.8569 18.53 19.8156 17.1328 19.8634 17.0744C19.9112 17.0159 20.3203 16.6334 20.3203 16.6334C20.5833 17.0529 20.8838 17.4476 21.2181 17.8128C21.3297 17.8128 21.4784 17.6215 21.4572 17.5737C21.4359 17.5259 20.5594 16.3094 20.5806 16.2509C20.6676 16.1219 20.7616 15.9978 20.8622 15.879C21.1684 16.3074 21.502 16.7156 21.8609 17.1009C21.9406 17.1009 22.1212 16.8831 22.0894 16.83C22.0575 16.7769 21.1225 15.5869 21.1225 15.555C21.1225 15.5231 21.335 15.1512 21.3562 15.0769L21.3881 14.9653C21.8047 15.5479 22.2516 16.1082 22.7269 16.644C22.8012 16.644 22.9659 16.5165 22.9447 16.4528C22.9234 16.389 21.5741 14.4553 21.5741 14.4553C21.7674 14.4236 21.9626 14.4041 22.1584 14.3969C22.1903 14.3969 23.5875 16.1819 23.6247 16.1712C23.6619 16.1606 23.9062 15.9375 23.9062 15.895C23.9062 15.8525 22.6791 14.3012 22.7216 14.3012C23.0435 14.2552 23.3688 14.2374 23.6937 14.2481C23.7841 14.3012 24.5703 15.4806 24.6287 15.4806C24.6872 15.4806 24.8891 15.3212 24.8678 15.2681C24.8466 15.215 24.225 14.2056 24.2622 14.2056C24.2994 14.2056 26.3234 14.3756 27.3434 14.5084C28.3634 14.6412 28.8894 14.8325 28.8787 14.9547C28.8681 15.0769 28.2997 18.785 27.2266 20.3787ZM28.8628 11.0181C28.9478 11.0819 29.6703 14.0887 29.3941 14.1312C28.8628 14.2056 26.4456 13.6 24.5809 13.5309C22.7162 13.4619 21.4412 13.4937 21.4412 13.4459C21.4412 13.3981 21.3722 12.5853 21.3722 12.5853C21.3722 12.5853 28.7778 10.9544 28.8628 11.0181ZM27.5453 8.96748C27.8906 9.68998 28.1191 10.3169 28.0075 10.37C27.8959 10.4231 21.25 11.9053 21.1916 11.8575C21.0764 11.654 20.9718 11.4448 20.8781 11.2306C21.1582 10.9373 21.4601 10.6656 21.7812 10.4178C21.7812 10.4815 22.2275 11.1881 22.3125 11.1722C22.3975 11.1562 22.5622 11.0819 22.5409 11.0181C22.5197 10.9544 22.1106 10.1787 22.1106 10.1787C22.1106 10.1787 22.5197 9.75373 22.5675 9.82279C22.816 10.228 23.0855 10.6199 23.375 10.9969C23.4387 10.9969 23.6194 10.7737 23.6194 10.7737C23.3712 10.3768 23.1579 9.95907 22.9819 9.52529C23.1461 9.39298 23.3242 9.27898 23.5131 9.18529C23.8106 9.67531 24.1539 10.136 24.5384 10.5612C24.6712 10.5612 24.9687 10.4709 24.9475 10.3222C24.9262 10.1734 24.0391 8.87716 24.0869 8.84529L24.5119 8.5531C24.5119 8.5531 25.5744 10.2106 25.6594 10.2053C25.8068 10.1488 25.9491 10.0795 26.0844 9.9981C26.0844 9.9981 24.9687 8.22904 24.9687 8.17591C25.0883 8.06592 25.2143 7.96303 25.3459 7.86779C25.7791 8.55071 26.2528 9.20709 26.7644 9.83341C26.8441 9.78029 27.1256 9.67404 27.0937 9.61029C27.0619 9.54654 25.7869 7.48529 25.7869 7.48529L26.1428 7.12935C26.6738 7.69148 27.1423 8.30958 27.54 8.97279L27.5453 8.96748ZM17.4516 2.41185C23.4175 2.16217 25.8612 5.43467 25.8187 5.84373C25.7762 6.25279 20.6337 10.4975 20.315 10.354C20.315 10.354 19.4597 9.07373 17.2869 9.18529C15.9522 9.28452 14.7074 9.89548 13.8125 10.8906L10.0459 8.60623C8.95156 7.94748 8.28749 7.09748 8.29812 6.84779C8.30874 6.5981 11.5069 2.65623 17.4622 2.41716L17.4516 2.41185ZM6.62999 9.47748C6.76082 9.24839 6.92359 9.0391 7.11343 8.85591C7.18701 9.30258 7.30628 9.74051 7.46937 10.1628C7.57031 10.1628 7.91562 10.0725 7.86249 9.93967C7.80937 9.80685 7.50124 8.42029 7.49593 8.34592C7.49062 8.27154 7.86781 7.90498 7.86781 7.90498C7.93285 7.95052 7.99023 8.00611 8.03781 8.06967C8.075 8.13341 8.51593 10.37 8.56906 10.4019C8.62218 10.4337 9.00468 10.5612 8.99937 10.4019C8.99406 10.2425 8.59562 8.43623 8.65937 8.44686C8.72312 8.45748 9.5625 9.10029 9.5625 9.10029C9.5625 9.10029 9.5625 10.5294 9.72718 10.625C9.89187 10.7206 10.1469 10.8162 10.1469 10.7472C10.1469 10.6781 10.0884 9.50404 10.0884 9.50404L10.7472 10.0353C10.7472 10.0353 10.6781 10.7684 10.7791 10.8322C10.88 10.8959 11.3103 11.0394 11.3103 10.9862C11.3103 10.9331 11.4006 10.455 11.4006 10.455C11.4006 10.455 13.1484 11.4484 13.1644 11.5175C13.1605 11.6139 13.1408 11.709 13.1059 11.799C13.0209 11.799 5.88624 11.0659 5.89687 10.965C5.9075 10.864 6.43874 9.8281 6.62999 9.47748ZM5.3125 12.7925C5.32357 12.4378 5.42605 12.0919 5.61 11.7884C5.61 11.7884 13.0475 12.3197 13.0475 12.3675C13.0475 12.4153 13.0156 13.2812 13.0156 13.2812C12.8509 13.2812 5.37625 14.8112 5.32312 14.6837C5.28085 14.0541 5.2773 13.4225 5.3125 12.7925ZM4.65906 15.879C4.65906 15.879 12.9625 13.9506 13.0634 14.0781C13.1644 14.2056 13.4831 15.1406 13.3184 15.2362C13.1537 15.3319 8.00593 19.4278 7.89437 19.6297C7.78281 19.8315 7.55437 22.424 7.49062 22.6259C7.42687 22.8278 6.90625 24.4375 6.90625 24.4375C6.90625 24.4375 6.01375 24.6234 5.81187 24.4375C5.30989 23.3902 4.87689 22.3112 4.51562 21.2075C4.505 21.0906 4.66437 15.8737 4.66437 15.8737L4.65906 15.879ZM22.0628 28.9265C22.2746 28.8654 22.469 28.7553 22.6305 28.6052C22.792 28.4552 22.916 28.2693 22.9924 28.0625C23.0689 27.8558 23.0958 27.634 23.0709 27.415C23.046 27.1959 22.97 26.9858 22.8491 26.8015C22.4559 26.2703 20.8781 26.2703 20.6019 27.3594C20.5369 27.5671 20.5281 27.7883 20.5763 28.0006C20.6246 28.2129 20.7282 28.4086 20.8766 28.5678C21.025 28.727 21.213 28.8441 21.4213 28.9071C21.6297 28.9701 21.851 28.9768 22.0628 28.9265ZM20.9419 27.4603C20.9998 27.3066 21.0941 27.1693 21.2167 27.06C21.3394 26.9508 21.4867 26.873 21.6461 26.8333C21.8055 26.7936 21.9721 26.7932 22.1316 26.8321C22.2912 26.871 22.439 26.948 22.5622 27.0565C22.649 27.1894 22.7035 27.3409 22.7211 27.4986C22.7388 27.6564 22.7192 27.8161 22.6639 27.9649C22.6086 28.1137 22.5192 28.2475 22.4028 28.3555C22.2864 28.4634 22.1463 28.5426 21.9937 28.5865C21.8418 28.6215 21.6834 28.6158 21.5344 28.57C21.3854 28.5242 21.2511 28.44 21.145 28.3258C21.0389 28.2117 20.9648 28.0715 20.93 27.9196C20.8953 27.7676 20.9012 27.6092 20.9472 27.4603L20.9419 27.4603ZM7.01781 22.2062C7.15578 21.5237 7.25334 20.8337 7.31 20.1397C7.31 20.0759 6.74687 20.1397 6.74687 20.1397C6.74687 20.1397 6.57156 22.0681 6.60343 22.1372C6.66418 22.1762 6.73226 22.2025 6.80351 22.2144C6.87475 22.2263 6.94767 22.2235 7.01781 22.2062ZM11.4591 27.4815C11.3941 27.6893 11.3852 27.9105 11.4335 28.1228C11.4818 28.3351 11.5854 28.5307 11.7338 28.69C11.8822 28.8492 12.0702 28.9663 12.2785 29.0293C12.4869 29.0923 12.7082 29.099 12.92 29.0487C13.1318 28.9876 13.3262 28.8775 13.4877 28.7274C13.6492 28.5774 13.7731 28.3915 13.8496 28.1847C13.9261 27.978 13.953 27.7562 13.9281 27.5372C13.9032 27.3181 13.8272 27.108 13.7062 26.9237C13.3131 26.3765 11.7353 26.3925 11.4591 27.4762L11.4591 27.4815ZM12.8509 28.6875C12.6979 28.7259 12.5375 28.7228 12.3861 28.6786C12.2347 28.6343 12.0978 28.5505 11.9895 28.4358C11.8813 28.3211 11.8056 28.1795 11.7703 28.0258C11.7349 27.8721 11.7412 27.7117 11.7884 27.5612C11.8463 27.4075 11.9406 27.2702 12.0633 27.161C12.186 27.0518 12.3333 26.974 12.4927 26.9343C12.652 26.8946 12.8186 26.8941 12.9782 26.933C13.1378 26.9719 13.2855 27.0489 13.4087 27.1575C13.4957 27.2897 13.5505 27.4404 13.5689 27.5975C13.5872 27.7547 13.5685 27.914 13.5143 28.0627C13.4601 28.2113 13.3719 28.3452 13.2567 28.4537C13.1415 28.5622 13.0026 28.6423 12.8509 28.6875ZM23.0297 17.5312C22.7615 17.617 22.5166 17.7633 22.3139 17.9588C22.1113 18.1543 21.9562 18.3937 21.8607 18.6586C21.7652 18.9235 21.7319 19.2068 21.7632 19.4866C21.7946 19.7664 21.8898 20.0353 22.0416 20.2725C22.3364 20.701 22.7717 21.0131 23.2723 21.1547C23.7728 21.2964 24.3071 21.2586 24.7828 21.0481C25.2338 20.8429 25.5949 20.4809 25.7991 20.0295C26.0033 19.5781 26.0367 19.0679 25.8931 18.5937C25.67 17.5312 24.2994 17.0425 23.0297 17.5312ZM24.5809 20.6762C24.2065 20.8413 23.7862 20.8705 23.3925 20.759C22.9988 20.6475 22.6563 20.4022 22.4241 20.0653C22.3055 19.8782 22.2314 19.6665 22.2074 19.4464C22.1834 19.2262 22.2101 19.0035 22.2855 18.7953C22.3609 18.5871 22.4829 18.3989 22.6423 18.2452C22.8017 18.0914 22.9942 17.9762 23.205 17.9084C24.2037 17.5206 25.2822 17.9084 25.4575 18.7531C25.5715 19.1254 25.5453 19.5266 25.3838 19.8809C25.2223 20.2352 24.9367 20.5181 24.5809 20.6762ZM23.4069 22.1425C23.2141 22.3846 22.9759 22.5867 22.7056 22.7375C22.1744 23.0987 21.3244 23.2953 21.3244 23.3644C21.3418 23.5032 21.3831 23.638 21.4466 23.7628C21.4997 23.8265 21.6272 23.7256 22.6791 23.2315C23.1746 23.0383 23.6263 22.7475 24.0072 22.3762C23.9912 22.2594 23.4069 22.1372 23.4069 22.1372L23.4069 22.1425ZM17.4781 16.4687C18.5406 16.2509 19.0719 14.9759 18.7053 13.8709C18.3387 12.7659 16.0491 12.9253 15.7037 14.0303C15.3584 15.1353 16.15 16.729 17.4781 16.4687ZM16.1075 14.2375C16.3731 13.43 18.02 13.3131 18.3069 14.1206C18.3804 14.3038 18.4154 14.5002 18.4095 14.6976C18.4037 14.8949 18.3572 15.0889 18.2729 15.2674C18.1886 15.446 18.0684 15.6052 17.9198 15.7351C17.7711 15.865 17.5973 15.9628 17.4091 16.0225C16.4422 16.2084 15.8472 15.0237 16.1128 14.2162L16.1075 14.2375Z" fill="white"/>
</svg>
